<svg id="visual" viewBox="0 0 900 300" width="900" height="300" xmlns="http://www.w3.org/2000/svg" xmlns:xlink="http://www.w3.org/1999/xlink" version="1.1"><rect x="0" y="0" width="900" height="300" fill="#202731"></rect><path d="M0 134L21.5 136.5C43 139 86 144 128.8 154C171.7 164 214.3 179 257.2 184.3C300 189.7 343 185.3 385.8 174.7C428.7 164 471.3 147 514.2 139.2C557 131.3 600 132.7 642.8 138.8C685.7 145 728.3 156 771.2 163.3C814 170.7 857 174.3 878.5 176.2L900 178L900 0L878.5 0C857 0 814 0 771.2 0C728.3 0 685.7 0 642.8 0C600 0 557 0 514.2 0C471.3 0 428.7 0 385.8 0C343 0 300 0 257.2 0C214.3 0 171.7 0 128.8 0C86 0 43 0 21.5 0L0 0Z" fill="#fa7268"></path><path d="M0 98L21.5 101C43 104 86 110 128.8 116.5C171.7 123 214.3 130 257.2 131.7C300 133.3 343 129.7 385.8 126.8C428.7 124 471.3 122 514.2 118.3C557 114.7 600 109.3 642.8 106.2C685.7 103 728.3 102 771.2 111.3C814 120.7 857 140.3 878.5 150.2L900 160L900 0L878.5 0C857 0 814 0 771.2 0C728.3 0 685.7 0 642.8 0C600 0 557 0 514.2 0C471.3 0 428.7 0 385.8 0C343 0 300 0 257.2 0C214.3 0 171.7 0 128.8 0C86 0 43 0 21.5 0L0 0Z" fill="#fc6165"></path><path d="M0 85L21.5 90C43 95 86 105 128.8 107.3C171.7 109.7 214.3 104.3 257.2 100.2C300 96 343 93 385.8 90.3C428.7 87.7 471.3 85.3 514.2 81.8C557 78.3 600 73.7 642.8 75.8C685.7 78 728.3 87 771.2 88.7C814 90.3 857 84.7 878.5 81.8L900 79L900 0L878.5 0C857 0 814 0 771.2 0C728.3 0 685.7 0 642.8 0C600 0 557 0 514.2 0C471.3 0 428.7 0 385.8 0C343 0 300 0 257.2 0C214.3 0 171.7 0 128.8 0C86 0 43 0 21.5 0L0 0Z" fill="#fe4e63"></path><path d="M0 55L21.5 55C43 55 86 55 128.8 57.7C171.7 60.3 214.3 65.7 257.2 66.3C300 67 343 63 385.8 59.3C428.7 55.7 471.3 52.3 514.2 53.3C557 54.3 600 59.7 642.8 64C685.7 68.3 728.3 71.7 771.2 75.8C814 80 857 85 878.5 87.5L900 90L900 0L878.5 0C857 0 814 0 771.2 0C728.3 0 685.7 0 642.8 0C600 0 557 0 514.2 0C471.3 0 428.7 0 385.8 0C343 0 300 0 257.2 0C214.3 0 171.7 0 128.8 0C86 0 43 0 21.5 0L0 0Z" fill="#ff3564"></path><path d="M0 40L21.5 40.7C43 41.3 86 42.7 128.8 42.2C171.7 41.7 214.3 39.3 257.2 41.2C300 43 343 49 385.8 51.7C428.7 54.3 471.3 53.7 514.2 49.5C557 45.3 600 37.7 642.8 34C685.7 30.3 728.3 30.7 771.2 32.2C814 33.7 857 36.3 878.5 37.7L900 39L900 0L878.5 0C857 0 814 0 771.2 0C728.3 0 685.7 0 642.8 0C600 0 557 0 514.2 0C471.3 0 428.7 0 385.8 0C343 0 300 0 257.2 0C214.3 0 171.7 0 128.8 0C86 0 43 0 21.5 0L0 0Z" fill="#ff0066"></path></svg>