<svg id="visual" viewBox="0 0 900 300" width="900" height="300" xmlns="http://www.w3.org/2000/svg" xmlns:xlink="http://www.w3.org/1999/xlink" version="1.1"><rect x="0" y="0" width="900" height="300" fill="#202731"></rect><path d="M0 140L21.5 145.5C43 151 86 162 128.8 166.2C171.7 170.3 214.3 167.7 257.2 161.8C300 156 343 147 385.8 142.7C428.7 138.3 471.3 138.7 514.2 147.2C557 155.7 600 172.3 642.8 175.3C685.7 178.3 728.3 167.7 771.2 157.2C814 146.7 857 136.3 878.5 131.2L900 126L900 0L878.5 0C857 0 814 0 771.2 0C728.3 0 685.7 0 642.8 0C600 0 557 0 514.2 0C471.3 0 428.7 0 385.8 0C343 0 300 0 257.2 0C214.3 0 171.7 0 128.8 0C86 0 43 0 21.5 0L0 0Z" fill="#fa7268"></path><path d="M0 137L21.5 134.5C43 132 86 127 128.8 129.5C171.7 132 214.3 142 257.2 141C300 140 343 128 385.8 129.3C428.7 130.7 471.3 145.3 514.2 145C557 144.7 600 129.3 642.8 122.7C685.7 116 728.3 118 771.2 116.3C814 114.7 857 109.3 878.5 106.7L900 104L900 0L878.5 0C857 0 814 0 771.2 0C728.3 0 685.7 0 642.8 0C600 0 557 0 514.2 0C471.3 0 428.7 0 385.8 0C343 0 300 0 257.2 0C214.3 0 171.7 0 128.8 0C86 0 43 0 21.5 0L0 0Z" fill="#f3665b"></path><path d="M0 97L21.5 94C43 91 86 85 128.8 83.2C171.7 81.3 214.3 83.7 257.2 87.3C300 91 343 96 385.8 97.8C428.7 99.7 471.3 98.3 514.2 94C557 89.7 600 82.3 642.8 85.7C685.7 89 728.3 103 771.2 111.5C814 120 857 123 878.5 124.5L900 126L900 0L878.5 0C857 0 814 0 771.2 0C728.3 0 685.7 0 642.8 0C600 0 557 0 514.2 0C471.3 0 428.7 0 385.8 0C343 0 300 0 257.2 0C214.3 0 171.7 0 128.8 0C86 0 43 0 21.5 0L0 0Z" fill="#ec594d"></path><path d="M0 55L21.5 58.2C43 61.3 86 67.7 128.8 66.3C171.7 65 214.3 56 257.2 51.8C300 47.7 343 48.3 385.8 52.2C428.7 56 471.3 63 514.2 68.3C557 73.7 600 77.3 642.8 73.7C685.7 70 728.3 59 771.2 59.2C814 59.3 857 70.7 878.5 76.3L900 82L900 0L878.5 0C857 0 814 0 771.2 0C728.3 0 685.7 0 642.8 0C600 0 557 0 514.2 0C471.3 0 428.7 0 385.8 0C343 0 300 0 257.2 0C214.3 0 171.7 0 128.8 0C86 0 43 0 21.5 0L0 0Z" fill="#e54c3f"></path><path d="M0 37L21.5 40C43 43 86 49 128.8 48.3C171.7 47.7 214.3 40.3 257.2 34.5C300 28.7 343 24.3 385.8 25.2C428.7 26 471.3 32 514.2 32.2C557 32.3 600 26.7 642.8 25C685.7 23.3 728.3 25.7 771.2 27.2C814 28.7 857 29.3 878.5 29.7L900 30L900 0L878.5 0C857 0 814 0 771.2 0C728.3 0 685.7 0 642.8 0C600 0 557 0 514.2 0C471.3 0 428.7 0 385.8 0C343 0 300 0 257.2 0C214.3 0 171.7 0 128.8 0C86 0 43 0 21.5 0L0 0Z" fill="#dd3f31"></path></svg>